<svg xmlns="http://www.w3.org/2000/svg" width="12" height="13.292" viewBox="0 0 12 13.292">
  <path id="review" d="M-3120.021,736.292h0l-2.334-3.29h-2.311a1.335,1.335,0,0,1-1.333-1.334v-7.333a1.335,1.335,0,0,1,1.333-1.333h9.333a1.334,1.334,0,0,1,1.333,1.333v7.333a1.335,1.335,0,0,1-1.333,1.334h-2.321l-2.366,3.29Zm-2.749-7.612a.539.539,0,0,0-.539.539.539.539,0,0,0,.539.539h5.388a.539.539,0,0,0,.539-.539.539.539,0,0,0-.539-.539Zm0-2.546a.539.539,0,0,0-.539.539.539.539,0,0,0,.539.539h5.388a.539.539,0,0,0,.539-.539.539.539,0,0,0-.539-.539Z" transform="translate(3126 -723)"/>
</svg>
