<svg xmlns="http://www.w3.org/2000/svg" width="14" height="12.348" viewBox="0 0 14 12.348">
  <path id="_0xff19" data-name="0xff19" d="M10.276-14.238a3.247,3.247,0,0,0-2.058.714A4.907,4.907,0,0,0,7-12.068a4.456,4.456,0,0,0-1.2-1.456,3.3,3.3,0,0,0-2.072-.714,3.563,3.563,0,0,0-1.9.525A3.645,3.645,0,0,0,.483-12.264,4.374,4.374,0,0,0,0-10.206,4.324,4.324,0,0,0,.364-8.47,6.316,6.316,0,0,0,1.372-6.86,15.61,15.61,0,0,0,2.954-5.25q.616.574,2.058,1.792l.42.35q.826.728,1.274,1.12A.43.43,0,0,0,7-1.89a.43.43,0,0,0,.294-.1q.448-.392,1.274-1.12l.42-.35q1.428-1.2,2.058-1.792a15.61,15.61,0,0,0,1.582-1.61,6.316,6.316,0,0,0,1.008-1.61A4.324,4.324,0,0,0,14-10.206a4.374,4.374,0,0,0-.483-2.058,3.645,3.645,0,0,0-1.337-1.449A3.563,3.563,0,0,0,10.276-14.238Z" transform="translate(0 14.238)"/>
</svg>
