<svg xmlns="http://www.w3.org/2000/svg" width="11.606" height="11.369" viewBox="0 0 11.606 11.369">
  <path id="double-left" d="M11037.277,10376.066l-4.7-4.729a.386.386,0,0,1,0-.6l4.7-4.727q.267-.315.576,0,.312.262,0,.576l-4.3,4.463,4.3,4.44q.312.312,0,.576a.437.437,0,0,1-.3.156A.37.37,0,0,1,11037.277,10376.066Zm-5,0-4.7-4.729a.387.387,0,0,1,0-.6l4.7-4.727c.178-.21.368-.21.576,0q.312.262,0,.576l-4.3,4.463,4.3,4.44q.312.312,0,.576a.437.437,0,0,1-.3.156A.37.37,0,0,1,11032.277,10376.066Z" transform="translate(-11026.903 -10365.354)" stroke="rgba(0,0,0,0)" stroke-width="1"/>
</svg>
