<svg xmlns="http://www.w3.org/2000/svg" width="16" height="9.568" viewBox="0 0 16 9.568">
  <path id="_0xed25" data-name="0xed25" d="M0-5.6A3.342,3.342,0,0,1,1.024-7.36,10.758,10.758,0,0,1,3.84-9.424,9.782,9.782,0,0,1,8-10.384a9.985,9.985,0,0,1,4.16.96A10.565,10.565,0,0,1,14.976-7.36,3.35,3.35,0,0,1,16-5.6a3.271,3.271,0,0,1-1.024,1.744A10.758,10.758,0,0,1,12.16-1.792,9.649,9.649,0,0,1,8-.816a9.839,9.839,0,0,1-4.16-.976A10.565,10.565,0,0,1,1.024-3.856,3.287,3.287,0,0,1,0-5.6Zm4.224,0a3.361,3.361,0,0,0,1.1,2.544A3.756,3.756,0,0,0,8-2.016a3.756,3.756,0,0,0,2.672-1.04,3.361,3.361,0,0,0,1.1-2.544,3.361,3.361,0,0,0-1.1-2.544A3.816,3.816,0,0,0,8-9.2,3.638,3.638,0,0,0,5.328-8.144,3.427,3.427,0,0,0,4.224-5.6ZM5.6-5.616a2.172,2.172,0,0,1,.7-1.632A2.368,2.368,0,0,1,8-7.92a2.368,2.368,0,0,1,1.7.672,2.172,2.172,0,0,1,.7,1.632,2.172,2.172,0,0,1-.7,1.632A2.428,2.428,0,0,1,8-3.3a2.257,2.257,0,0,1-1.7-.688A2.24,2.24,0,0,1,5.6-5.616Z" transform="translate(0 10.384)"/>
</svg>
