<svg xmlns="http://www.w3.org/2000/svg" width="10" height="10" viewBox="0 0 10 10">
  <path id="_0xff07" data-name="0xff07" d="M-.21-5.217l4-4.015a.562.562,0,0,0,.159-.4.537.537,0,0,0-.164-.393.537.537,0,0,0-.393-.164.562.562,0,0,0-.4.159l-4.015,4-4.014-4a.562.562,0,0,0-.4-.159.537.537,0,0,0-.393.164.537.537,0,0,0-.164.393.562.562,0,0,0,.159.4l4,4.015-4,4.014a.562.562,0,0,0-.159.4.537.537,0,0,0,.164.393.537.537,0,0,0,.393.164.562.562,0,0,0,.4-.159l4.014-4L3-.406a.543.543,0,0,0,.254.184A.577.577,0,0,0,3.57-.2a.546.546,0,0,0,.279-.149A.546.546,0,0,0,4-.63a.577.577,0,0,0-.02-.319A.543.543,0,0,0,3.794-1.2Z" transform="translate(5.988 10.188)"/>
</svg>
