<svg xmlns="http://www.w3.org/2000/svg" width="11.607" height="11.367" viewBox="0 0 11.607 11.367">
  <path id="double-right" d="M11014.585,10376.066c-.208-.178-.208-.368,0-.576l4.3-4.441-4.3-4.464c-.208-.207-.208-.4,0-.575.21-.207.4-.207.578,0l4.7,4.729a.384.384,0,0,1,0,.6l-4.7,4.729a.372.372,0,0,1-.277.155A.445.445,0,0,1,11014.585,10376.066Zm-5,0c-.21-.178-.21-.368,0-.576l4.295-4.441-4.295-4.464c-.21-.207-.21-.4,0-.575.208-.207.4-.207.575,0l4.705,4.729a.384.384,0,0,1,0,.6l-4.705,4.729a.37.37,0,0,1-.276.155A.439.439,0,0,1,11009.587,10376.066Z" transform="translate(-11008.93 -10365.354)" stroke="rgba(0,0,0,0)" stroke-width="1"/>
</svg>
