<svg xmlns="http://www.w3.org/2000/svg" width="5.85" height="10.026" viewBox="0 0 5.85 10.026">
  <path id="_0xf105" data-name="0xf105" d="M2.763-5.652a.3.3,0,0,1-.09.216l-4.7,4.7a.3.3,0,0,1-.216.09.358.358,0,0,1-.234-.09l-.5-.5a.327.327,0,0,1-.108-.234.327.327,0,0,1,.108-.234L.963-5.652l-3.942-3.96a.273.273,0,0,1-.108-.216.327.327,0,0,1,.108-.234l.5-.5a.29.29,0,0,1,.234-.108.242.242,0,0,1,.216.108l4.7,4.68A.317.317,0,0,1,2.763-5.652Z" transform="translate(3.087 10.674)" fill="#101010"/>
</svg>
