<svg xmlns="http://www.w3.org/2000/svg" width="11.83" height="11.844" viewBox="0 0 11.83 11.844">
  <path id="_0xe849" data-name="0xe849" d="M3.5-8.4a.972.972,0,0,0-.294-.714.909.909,0,0,0-.7-.28,1.122,1.122,0,0,0-.714.28A.857.857,0,0,0,1.5-8.4a.935.935,0,0,0,.294.7,1.209,1.209,0,0,0,.714.294.749.749,0,0,0,.7-.294A1.278,1.278,0,0,0,3.5-8.4Zm8.33,4.494a1,1,0,0,1-.28.714L7.714.644a1.011,1.011,0,0,1-.721.294A.919.919,0,0,1,6.3.644L.714-4.942a2.443,2.443,0,0,1-.5-.8A2.4,2.4,0,0,1,0-6.65V-9.9a.956.956,0,0,1,.294-.7,1.008,1.008,0,0,1,.7-.308H4.256a2.4,2.4,0,0,1,.91.21,2.443,2.443,0,0,1,.8.5L11.55-4.606A.98.98,0,0,1,11.83-3.906Z" transform="translate(0 10.906)"/>
</svg>
