<svg xmlns="http://www.w3.org/2000/svg" width="13.16" height="11.48" viewBox="0 0 13.16 11.48">
  <path id="_0xe953" data-name="0xe953" d="M-.868-10.64A5.548,5.548,0,0,1,3.15-9.016,5.5,5.5,0,0,1,4.872-5.068H6.58L4-2.184,1.428-5.068H3.444a4.106,4.106,0,0,0-1.316-2.94,4.205,4.205,0,0,0-3.01-1.2,4.108,4.108,0,0,0-3.01,1.26,4.14,4.14,0,0,0-1.26,3.038,4.14,4.14,0,0,0,1.26,3.038A4.124,4.124,0,0,0-.868-.616a4.06,4.06,0,0,0,2.548-.84L2.66-.392A5.491,5.491,0,0,1-.868.84,5.5,5.5,0,0,1-4.9-.84,5.531,5.531,0,0,1-6.58-4.9,5.531,5.531,0,0,1-4.9-8.96,5.5,5.5,0,0,1-.868-10.64Z" transform="translate(6.58 10.64)"/>
</svg>
