<svg xmlns="http://www.w3.org/2000/svg" width="14" height="12.376" viewBox="0 0 14 12.376">
  <path id="_0xff18" data-name="0xff18" d="M12.978-13.038a3.549,3.549,0,0,0-1.218-.9,3.575,3.575,0,0,0-1.484-.315,3.293,3.293,0,0,0-1.82.532A3.964,3.964,0,0,0,7.35-12.632a6.125,6.125,0,0,0-.35.56,6.125,6.125,0,0,0-.35-.56,3.964,3.964,0,0,0-1.106-1.092,3.293,3.293,0,0,0-1.82-.532,3.575,3.575,0,0,0-1.484.315,3.549,3.549,0,0,0-1.218.9A4.043,4.043,0,0,0,.266-11.75,4.411,4.411,0,0,0,0-10.224,4.336,4.336,0,0,0,.35-8.516,7.049,7.049,0,0,0,1.428-6.808,18.84,18.84,0,0,0,3-5.226q.588.546,1.988,1.736l.028.028q1.05.882,1.694,1.456l.028.028A.427.427,0,0,0,7-1.88a.427.427,0,0,0,.266-.1l.028-.028q.644-.574,1.694-1.456l.028-.028Q10.416-4.68,11-5.226a18.84,18.84,0,0,0,1.568-1.582,6.762,6.762,0,0,0,1.078-1.7A4.387,4.387,0,0,0,14-10.224a4.411,4.411,0,0,0-.266-1.526A4.043,4.043,0,0,0,12.978-13.038ZM8.456-4.092l-.63.546Q7.28-3.084,7-2.832q-.5-.448-1.456-1.26L5.53-4.106Q3.752-5.618,3.052-6.29A9.87,9.87,0,0,1,1.414-8.236a3.826,3.826,0,0,1-.588-1.988,3.677,3.677,0,0,1,.21-1.246A3.039,3.039,0,0,1,1.645-12.5a2.834,2.834,0,0,1,.938-.686,2.726,2.726,0,0,1,1.141-.245,2.513,2.513,0,0,1,1.4.42,3.1,3.1,0,0,1,.854.854,4.8,4.8,0,0,1,.616,1.218l.014.028a.4.4,0,0,0,.147.2A.4.4,0,0,0,7-10.63a.4.4,0,0,0,.245-.077.4.4,0,0,0,.147-.2l.014-.028a4.8,4.8,0,0,1,.616-1.218,3.1,3.1,0,0,1,.854-.854,2.513,2.513,0,0,1,1.4-.42,2.726,2.726,0,0,1,1.141.245,2.834,2.834,0,0,1,.938.686,3.039,3.039,0,0,1,.609,1.029,3.677,3.677,0,0,1,.21,1.246,3.826,3.826,0,0,1-.588,1.988A9.87,9.87,0,0,1,10.948-6.29q-.7.672-2.478,2.184Z" transform="translate(0 14.256)"/>
</svg>
