<svg id="icon_play" xmlns="http://www.w3.org/2000/svg" width="38" height="41.996" viewBox="0 0 38 41.996">
  <path id="패스_29060" data-name="패스 29060" d="M4.919,39.722a4.816,4.816,0,0,1-.894-.083h0A4.791,4.791,0,0,1,1.74,38.513a5.605,5.605,0,0,1-1.617-5.46L5.06,4.871C5.6,1.8,7.405.69,8.434.3a4.949,4.949,0,0,1,5.449,1.441l20.51,18.913A5.114,5.114,0,0,1,35.9,25.2a4.935,4.935,0,0,1-1.031,2.261,4.6,4.6,0,0,1-1.6,1.32l-.425.21L7.262,39.213A6,6,0,0,1,4.919,39.722Zm-.7-1.192a4.564,4.564,0,0,0,2.638-.363L32.8,27.759a3.532,3.532,0,0,0,1.228-1.021,3.8,3.8,0,0,0,.8-1.742,3.976,3.976,0,0,0-1.178-3.521l-20.5-18.9A3.944,3.944,0,0,0,8.809,1.363,4.411,4.411,0,0,0,6.133,5.072L1.2,33.254a4.505,4.505,0,0,0,1.253,4.4,3.711,3.711,0,0,0,1.77.871Z" transform="translate(2.079 0) rotate(3)" fill="#fff" opacity="0.85"/>
  <path id="패스_29061" data-name="패스 29061" d="M374.4,715.977a4.421,4.421,0,0,1-2.275-.636,5.212,5.212,0,0,1-2.376-4.794V680.611a5.248,5.248,0,0,1,2.378-4.839,4.673,4.673,0,0,1,5.288.412l24.632,15.5a4.68,4.68,0,0,1,2.1,3.877,4.617,4.617,0,0,1-.583,2.235,4.341,4.341,0,0,1-1.247,1.473l-.409.3L377.373,715A5.376,5.376,0,0,1,374.4,715.977Zm-.252-5.861Zm-.7-31.307.7,33.562,26.493-16.814Z" transform="translate(-366.539 -673.981)" fill="#fff"/>
</svg>
